<?xml version="1.0" standalone="no"?>
<!DOCTYPE svg PUBLIC "-//W3C//DTD SVG 20010904//EN"
 "http://www.w3.org/TR/2001/REC-SVG-20010904/DTD/svg10.dtd">
<svg version="1.0" xmlns="http://www.w3.org/2000/svg"
 width="357.000000pt" height="357.000000pt" viewBox="0 0 357.000000 357.000000"
 preserveAspectRatio="xMidYMid meet">

<g transform="translate(0.000000,357.000000) scale(0.100000,-0.100000)"
fill="#000000" stroke="none">
<path d="M1435 3544 c-22 -14 -75 -43 -117 -65 -65 -33 -78 -43 -78 -64 0 -13
5 -27 10 -30 15 -9 12 -25 -5 -25 -8 0 -15 -7 -15 -16 0 -9 -15 -31 -34 -50
-42 -42 -61 -116 -71 -274 -4 -58 -13 -145 -21 -195 -7 -49 -21 -162 -29 -250
-18 -180 -21 -193 -75 -360 -22 -66 -42 -132 -45 -147 -3 -16 -21 -38 -45 -55
-25 -18 -40 -36 -40 -50 0 -17 -22 -32 -112 -78 -275 -139 -343 -180 -524
-312 -158 -115 -165 -124 -121 -144 18 -8 35 -6 78 11 39 16 84 23 164 27 112
5 401 50 488 77 45 13 47 13 47 -6 0 -45 -139 -212 -187 -224 -29 -8 -30 -24
-2 -24 42 0 179 159 210 243 8 24 21 38 38 42 14 4 49 18 78 31 50 24 81 25
67 2 -4 -5 6 -2 22 8 20 14 29 15 32 6 2 -6 8 -12 13 -12 4 0 6 6 3 14 -6 17
26 36 121 71 l62 24 18 -40 c20 -43 76 -99 100 -99 8 0 15 -4 15 -10 0 -21
-107 -11 -155 15 -46 24 -111 42 -121 33 -12 -13 11 -38 49 -54 36 -15 39 -18
19 -22 -28 -4 -88 15 -124 40 -27 19 -48 17 -48 -4 0 -7 4 -7 14 1 10 9 16 8
25 -3 30 -36 96 -49 209 -42 83 6 104 5 95 -4 -15 -16 -5 -40 17 -40 9 0 36
14 58 30 44 32 62 37 62 18 0 -6 9 -3 20 7 19 18 20 17 20 -6 0 -17 -12 -31
-43 -50 -23 -14 -51 -29 -61 -33 -10 -3 -16 -9 -13 -13 4 -3 30 8 58 26 51 31
73 36 46 10 -8 -8 -42 -36 -77 -64 -157 -126 -239 -195 -283 -240 -71 -74 -57
-72 19 2 82 81 276 226 284 212 4 -5 27 8 52 31 25 22 49 40 52 40 3 0 6 -11
6 -25 0 -18 -11 -31 -37 -48 -21 -14 -53 -38 -72 -56 -18 -17 -68 -56 -110
-86 -101 -73 -190 -141 -222 -171 -14 -13 -29 -24 -35 -24 -15 0 -164 -148
-240 -240 -132 -157 -152 -176 -174 -162 -27 16 -35 15 -20 -3 16 -19 54 -19
70 0 7 9 15 13 18 11 2 -3 29 25 59 62 122 149 281 318 290 309 2 -3 0 -21 -5
-41 -6 -20 -7 -36 -2 -36 9 0 20 35 20 66 0 22 38 64 58 64 15 0 14 3 1 -60
-13 -60 -34 -69 -24 -10 4 26 3 40 -4 40 -6 0 -11 -12 -11 -27 0 -16 -3 -38
-6 -50 -8 -29 9 -30 47 -2 16 11 29 17 29 13 0 -5 5 -3 11 3 12 12 14 27 17
104 2 30 9 41 50 70 26 18 54 42 62 52 14 17 18 17 80 -14 36 -17 72 -35 80
-40 8 -6 31 -17 50 -25 36 -16 81 -64 59 -64 -8 0 -7 -5 2 -17 11 -13 11 -17
2 -20 -7 -3 -13 -20 -13 -38 0 -25 -5 -35 -19 -40 -35 -11 -134 -135 -268
-335 -226 -336 -371 -558 -388 -590 l-16 -30 1042 0 1041 0 -7 53 c-3 28 -13
86 -20 127 -8 41 -17 90 -20 108 -22 133 -63 287 -125 467 -58 168 -84 228
-129 300 -32 50 -76 122 -99 160 -23 39 -57 86 -77 105 -31 30 -37 32 -59 22
-25 -11 -26 -10 -42 46 -9 31 -20 65 -25 75 -5 10 -14 50 -19 89 -7 56 -14 76
-36 99 -15 16 -23 29 -18 29 5 0 25 14 44 31 l35 30 -39 -27 c-28 -20 -56 -30
-100 -35 -33 -3 -71 -9 -83 -13 -50 -16 -33 58 40 174 19 30 14 28 -31 -18
-28 -29 -52 -59 -52 -67 0 -8 -9 -15 -20 -15 -11 0 -20 -7 -20 -15 0 -8 9 -19
20 -25 11 -6 20 -17 20 -24 0 -7 11 -34 24 -60 l24 -48 -46 -62 c-25 -33 -48
-64 -52 -68 -3 -5 -6 4 -7 20 0 15 -2 47 -3 72 -3 45 -3 45 -11 -15 -6 -50 -6
-46 -3 25 2 47 5 94 6 105 1 11 -2 90 -6 175 -5 85 -9 171 -10 191 -1 36 -24
69 -48 69 -8 0 -7 4 5 11 18 11 24 64 7 74 -5 3 -10 0 -10 -8 0 -17 -71 -41
-80 -26 -4 5 -14 1 -24 -10 -14 -16 -15 -23 -6 -40 6 -12 9 -25 6 -29 -2 -4 2
-32 10 -61 16 -62 16 -62 -57 -118 -49 -37 -60 -59 -15 -29 23 15 27 14 56 -2
25 -14 30 -22 27 -44 -2 -16 0 -28 4 -28 12 0 19 51 15 122 -1 37 0 72 4 79 5
6 1 27 -6 46 -15 36 -16 35 33 46 30 7 33 -11 33 -198 0 -88 4 -166 9 -174 7
-10 9 -1 8 30 -3 93 3 282 10 276 3 -4 7 -128 8 -277 l3 -270 -32 -8 -31 -8
-3 45 c-5 66 -22 77 -22 14 0 -28 -5 -53 -11 -55 -17 -6 2 -38 23 -38 10 0 16
-4 13 -10 -4 -6 9 -10 32 -11 l38 -1 -30 -13 c-38 -18 -82 -19 -88 -2 -5 11
-11 -72 -8 -99 2 -18 -105 -105 -122 -98 -34 13 -26 36 28 86 30 28 55 55 55
60 0 6 -6 6 -14 -1 -8 -7 1 17 21 53 19 36 31 71 28 76 -10 16 -29 -3 -80 -80
-25 -38 -81 -105 -123 -149 -77 -79 -79 -80 -112 -71 -53 15 -141 63 -133 71
5 4 19 10 33 13 14 2 4 3 -22 2 -34 -3 -51 1 -62 13 -14 15 -12 20 19 48 18
17 36 29 39 27 3 -2 4 -1 1 2 -5 7 75 74 89 74 9 0 1 -84 -11 -118 -4 -12 -3
-14 6 -6 13 12 34 169 28 211 -9 60 -20 93 -31 93 -6 0 -4 5 4 10 13 8 12 10
-4 10 -19 0 -19 0 0 21 19 21 19 22 -6 38 -14 9 -43 32 -65 52 -22 20 -51 40
-65 44 -25 8 -25 8 -6 -14 11 -11 15 -21 10 -21 -22 0 -84 22 -84 29 0 5 21
14 47 21 55 13 147 61 183 95 14 13 46 33 73 44 28 12 51 30 56 43 11 28 138
154 147 146 8 -9 -13 -71 -43 -128 l-24 -45 24 25 c24 25 50 86 62 147 4 21
23 48 56 77 27 24 49 49 49 55 0 19 18 12 25 -9 9 -29 21 -25 20 7 0 23 11 32
87 73 l87 48 25 -27 c14 -15 26 -36 26 -48 0 -33 -50 -264 -62 -287 -20 -38
-80 -106 -94 -106 -7 0 -12 -9 -11 -20 2 -24 6 -25 22 -4 6 9 24 17 39 17 38
-1 80 53 86 112 8 68 25 50 24 -25 l-2 -65 17 38 16 39 28 -22 c26 -21 57 -78
57 -106 0 -10 -8 -9 -32 5 -18 11 -43 22 -54 25 -19 6 -21 3 -20 -22 2 -40 20
-59 61 -64 42 -5 43 -3 10 14 -18 10 -22 17 -15 28 8 12 13 11 33 -8 13 -12
26 -22 29 -22 7 0 -9 95 -20 117 -17 33 -4 43 61 43 39 0 78 7 105 20 23 10
42 17 42 14 0 -18 -48 -68 -76 -80 -38 -16 -44 -39 -14 -49 24 -8 17 -25 -10
-25 -10 0 -31 -5 -47 -11 -27 -10 -27 -11 -9 -24 18 -14 18 -15 -8 -25 -37
-14 -72 -12 -131 5 -54 17 -51 5 4 -14 51 -17 108 -13 149 9 20 11 54 26 75
34 29 12 37 20 37 40 0 20 -5 26 -22 26 l-23 0 22 18 c26 21 63 81 63 103 0 9
7 22 15 29 30 25 6 22 -27 -3 -41 -32 -88 -51 -88 -36 0 5 -11 21 -24 34 l-25
24 27 20 27 20 -53 -19 c-69 -26 -133 -26 -157 0 -15 17 -16 25 -6 64 6 25 11
57 11 73 l0 28 16 -30 c36 -69 80 -95 156 -94 l53 1 -55 12 c-30 6 -67 20 -82
30 -34 22 -68 75 -78 122 l-8 34 44 0 c28 0 63 10 94 25 28 14 50 23 50 19 0
-3 -15 -33 -32 -66 -25 -45 -30 -62 -20 -65 10 -4 9 -9 -4 -24 -30 -33 -10
-29 54 11 34 22 62 46 62 55 0 19 -2 19 -47 0 -19 -8 -37 -15 -39 -15 -2 0 8
24 23 54 16 34 23 61 19 72 -5 12 -9 15 -14 7 -4 -6 -32 -21 -62 -33 -54 -21
-112 -23 -153 -6 -13 6 -16 5 -11 -8 9 -23 -9 -20 -24 4 -11 19 -10 22 18 32
18 6 98 44 178 85 81 40 192 87 247 104 101 31 191 65 307 118 35 15 84 34
111 41 50 13 56 20 32 40 -12 10 -25 10 -58 1 -23 -6 -105 -22 -182 -36 -77
-15 -184 -37 -237 -51 -53 -13 -106 -24 -118 -24 -25 0 -176 -34 -230 -51 -19
-6 -43 -18 -52 -26 -15 -13 -18 -12 -27 5 -7 12 -25 21 -51 25 -22 3 -48 11
-56 18 -36 30 -142 193 -211 326 l-74 142 12 84 12 85 -41 36 c-46 42 -82 108
-75 136 3 10 17 23 32 28 24 8 101 97 101 116 0 3 -105 6 -232 6 -232 -1 -233
-1 -273 -26z m905 -1394 c-13 -60 -35 -107 -26 -55 3 17 11 64 18 105 10 60
14 68 16 40 2 -19 -2 -60 -8 -90z m-250 -24 c0 -13 -34 -36 -53 -36 -18 1 -16
4 13 20 39 21 40 22 40 16z m361 -102 c54 5 59 4 79 -22 l22 -27 -30 -9 c-43
-12 -82 0 -82 25 0 11 -5 17 -10 14 -6 -4 -8 -21 -4 -42 l7 -35 -36 23 c-26
17 -36 32 -39 56 -3 29 -2 31 16 21 11 -6 44 -8 77 -4z m-192 -114 c-6 -16
-17 -30 -25 -30 -20 0 -17 10 8 37 28 30 29 29 17 -7z m-259 -35 c0 -8 -4 -15
-9 -15 -13 0 -22 16 -14 24 11 11 23 6 23 -9z m-583 -160 c19 -8 56 -15 82
-15 43 0 49 -3 79 -42 34 -44 41 -68 20 -68 -65 1 -193 61 -222 104 -27 42
-19 46 41 21z m58 -117 c14 -13 -3 -10 -34 6 -15 8 -34 23 -42 32 -11 14 -5
13 26 -6 22 -13 44 -27 50 -32z m175 31 c0 -15 -22 -21 -31 -8 -14 22 -11 28
11 22 11 -3 20 -9 20 -14z m681 -4 c-43 -19 -68 -19 -68 0 0 11 12 15 51 15
l51 -1 -34 -14z m114 -72 c5 -32 9 -77 9 -101 1 -29 7 -48 18 -56 39 -29 40
-86 1 -86 -7 0 -23 -17 -37 -37 -41 -66 -418 -441 -448 -447 -16 -3 -39 -8
-53 -11 -14 -3 -23 -9 -21 -14 3 -5 -5 -11 -19 -13 -21 -4 -24 -2 -22 23 2 20
5 25 14 17 19 -15 49 58 32 78 -12 15 -38 19 -40 7 -1 -5 -3 -18 -4 -31 -1
-12 -4 -25 -7 -27 -5 -6 -56 70 -88 133 -23 45 -43 65 -35 35 3 -10 0 -7 -7 6
-10 20 -9 25 6 36 9 7 17 16 16 20 -1 4 10 20 24 36 29 32 72 47 89 30 8 -8 1
-15 -26 -26 -20 -8 -43 -15 -52 -15 -18 0 -19 -12 -4 -27 7 -7 21 -8 38 -3 41
12 101 43 96 50 -2 3 13 24 33 46 l37 39 3 -57 c5 -103 22 -63 22 52 0 100 7
129 25 100 6 -10 23 -8 64 8 10 4 12 -10 10 -71 -2 -42 0 -78 5 -79 5 -2 8 41
7 95 -2 74 1 97 11 97 10 0 12 -24 10 -105 -3 -93 -6 -106 -23 -116 -12 -6
-24 -8 -27 -4 -3 3 -9 43 -13 88 l-6 82 -1 -87 c-2 -69 -5 -88 -16 -88 -10 0
-16 13 -19 38 -3 28 -4 23 -5 -20 l-2 -56 33 2 c19 2 48 11 65 22 l32 18 0
126 c0 117 2 128 25 162 22 33 96 95 167 141 15 9 30 28 34 42 5 20 9 23 24
15 12 -6 20 -28 25 -67z m-1111 16 c8 -9 1 -10 -29 -4 -22 4 -44 10 -50 13 -5
4 -14 7 -19 7 -5 0 -11 5 -13 12 -5 15 94 -10 111 -28z m196 -2 c0 -2 -10 -12
-21 -23 -22 -19 -22 -19 -10 4 10 18 31 31 31 19z m760 -11 c0 -2 -8 -10 -17
-17 -16 -13 -17 -12 -4 4 13 16 21 21 21 13z m-645 -45 c3 -5 1 -12 -5 -16 -5
-3 -10 1 -10 9 0 18 6 21 15 7z m495 -102 c0 -5 -11 -9 -25 -9 -26 0 -34 15
-12 23 16 5 37 -3 37 -14z m-834 -343 c-4 -24 -14 -50 -22 -57 -13 -11 -14 -9
-9 17 4 16 8 35 11 42 2 6 -2 12 -8 12 -6 0 -3 9 7 20 24 27 29 20 21 -34z
m984 -20 c0 -2 -8 -10 -17 -17 -16 -13 -17 -12 -4 4 13 16 21 21 21 13z m-480
-134 c22 -34 40 -75 40 -90 1 -26 -5 -71 -10 -82 -1 -3 -1 -21 0 -40 3 -54 21
-58 75 -16 19 14 18 15 -15 6 -19 -6 -37 -10 -40 -10 -2 0 25 17 61 38 36 22
88 54 115 73 l49 33 -32 -44 c-18 -24 -42 -45 -53 -47 -27 -4 -111 -90 -104
-107 4 -11 0 -13 -18 -9 l-23 5 24 -20 c14 -11 31 -17 39 -14 10 3 13 0 10 -9
-3 -10 -17 -13 -43 -11 -25 3 -35 0 -31 -7 4 -6 16 -11 28 -11 14 0 18 -5 14
-16 -3 -9 -6 -18 -6 -20 0 -2 -4 -4 -10 -4 -5 0 -10 7 -10 16 0 8 -4 13 -10 9
-5 -3 -7 -13 -3 -23 3 -11 -1 -8 -12 6 -9 13 -14 29 -11 37 3 8 2 15 -2 15 -9
0 -38 -75 -46 -117 -8 -48 0 -40 19 18 15 45 19 49 28 33 6 -10 14 -21 18 -24
4 -3 -13 -39 -36 -80 -43 -72 -44 -73 -44 -40 -1 19 -2 51 -3 70 0 19 3 56 9
82 l10 47 -52 -30 c-59 -33 -65 -35 -65 -14 0 8 19 27 43 44 71 49 71 49 30
129 -37 72 -38 110 -2 60 57 -78 53 -78 76 1 l21 72 -40 82 c-45 94 -44 95 12
9z m384 56 c-40 -66 -84 -111 -156 -160 -94 -64 -124 -77 -155 -69 -18 5 -20
9 -9 23 13 17 61 14 50 -3 -3 -5 -1 -9 3 -9 10 0 203 167 240 206 24 26 39 32
27 12z m-551 -103 c-55 -66 -58 -57 -4 12 14 18 30 33 34 33 4 0 -9 -20 -30
-45z m167 -119 c0 -3 -4 -8 -10 -11 -5 -3 -10 -1 -10 4 0 6 5 11 10 11 6 0 10
-2 10 -4z m75 -36 c-3 -5 -10 -10 -16 -10 -5 0 -9 5 -9 10 0 6 7 10 16 10 8 0
12 -4 9 -10z m118 -7 c-12 -35 -65 -104 -75 -101 -26 9 -14 40 29 78 52 45 55
47 46 23z m-255 -91 c3 -9 -2 -13 -14 -10 -9 1 -19 9 -22 16 -3 9 2 13 14 10
9 -1 19 -9 22 -16z"/>
<path d="M2345 1318 c-10 -31 -9 -51 2 -55 14 -5 37 43 27 58 -8 13 -24 11
-29 -3z"/>
<path d="M2206 1168 c-8 -32 -7 -58 2 -58 4 1 17 9 30 20 17 14 22 25 17 40
-9 27 -41 26 -49 -2z"/>
<path d="M2003 1044 c-3 -8 -1 -20 6 -27 8 -8 11 -4 11 16 0 30 -7 35 -17 11z"/>
<path d="M2037 1023 c-5 -45 6 -62 28 -43 16 13 19 37 9 64 -11 29 -32 17 -37
-21z"/>
<path d="M1769 573 c-13 -16 -12 -17 4 -4 16 13 21 21 13 21 -2 0 -10 -8 -17
-17z"/>
<path d="M3560 3550 c0 -15 -7 -20 -24 -20 -27 0 -56 -33 -56 -62 0 -21 33
-40 63 -36 20 3 22 10 25 71 2 37 0 67 -3 67 -3 0 -5 -9 -5 -20z"/>
<path d="M2627 2352 c-51 -52 -47 -63 5 -13 23 22 40 42 37 45 -3 3 -22 -11
-42 -32z"/>
<path d="M2160 2237 c0 -4 6 -16 12 -27 10 -16 10 -26 -1 -52 -17 -41 -20 -84
-5 -81 15 3 13 -29 -3 -45 -16 -16 -17 -33 -2 -29 6 1 14 -4 17 -12 2 -8 0
-11 -5 -8 -6 4 -10 -15 -11 -46 -1 -35 2 -47 8 -37 5 8 10 23 10 32 0 9 3 18
8 20 4 2 6 38 4 81 -3 63 -6 77 -18 73 -12 -5 -12 -1 1 24 19 37 19 71 0 96
-8 10 -15 16 -15 11z"/>
<path d="M2151 2182 c0 -13 -6 -32 -12 -44 -6 -11 -8 -22 -5 -25 9 -9 27 49
23 71 -4 19 -4 19 -6 -2z"/>
<path d="M2695 2118 c-10 -6 -33 -15 -50 -19 -27 -6 -27 -7 -5 -8 14 0 41 8
60 19 19 11 31 19 25 19 -5 0 -19 -5 -30 -11z"/>
<path d="M1780 1906 c0 -2 7 -9 15 -16 13 -11 14 -10 9 4 -5 14 -24 23 -24 12z"/>
<path d="M1760 1850 c-11 -8 -7 -10 18 -8 19 1 36 6 38 10 7 11 -38 10 -56 -2z"/>
<path d="M1814 1715 c0 -55 1 -76 3 -47 2 29 2 74 0 100 -2 26 -3 2 -3 -53z"/>
<path d="M1853 1770 c8 -29 8 -52 0 -82 -10 -38 -10 -41 3 -24 8 11 14 23 14
26 0 8 62 30 84 30 13 0 8 -12 -23 -59 -22 -33 -55 -71 -73 -85 -18 -14 -29
-26 -25 -26 22 0 50 26 98 91 45 60 56 69 76 64 20 -5 23 -2 23 23 0 26 -3 29
-27 26 -16 -2 -48 -10 -72 -19 -58 -20 -61 -20 -61 14 0 34 -9 61 -20 61 -4 0
-2 -18 3 -40z"/>
<path d="M3486 1764 c-83 -50 -127 -85 -123 -98 2 -6 30 -14 63 -17 32 -3 78
-9 102 -14 l42 -8 0 87 c0 62 -3 86 -12 86 -7 0 -39 -16 -72 -36z"/>
<path d="M1995 1625 c-11 -17 -25 -39 -31 -50 -6 -11 -36 -38 -67 -59 -31 -22
-55 -42 -52 -44 6 -6 135 67 135 77 0 4 10 19 23 33 16 17 21 32 17 48 l-6 24
-19 -29z"/>
<path d="M1784 1613 c7 -24 27 -186 23 -190 -2 -1 -11 31 -21 72 -10 41 -20
75 -22 75 -3 0 -2 -29 2 -64 7 -67 -9 -138 -47 -203 -10 -18 -15 -33 -11 -33
12 0 48 69 63 120 l14 45 7 -44 c9 -51 15 -61 29 -41 19 27 -11 280 -33 280
-5 0 -7 -8 -4 -17z"/>
<path d="M1123 1557 c4 -10 -1 -37 -10 -60 -16 -40 -17 -41 -24 -17 -4 16 -7
-3 -8 -50 -1 -54 4 -82 15 -98 16 -23 72 -57 81 -48 3 2 -9 12 -25 20 -69 35
-77 84 -32 177 27 57 28 62 13 78 -16 15 -16 15 -10 -2z"/>
<path d="M959 1493 c-58 -78 -137 -162 -174 -184 -16 -11 -25 -19 -19 -19 18
0 77 48 132 107 30 32 51 49 47 38 -4 -11 -9 -76 -10 -145 l-2 -125 -45 -75
c-24 -41 -62 -115 -83 -165 -33 -77 -39 -102 -41 -175 l-3 -85 10 69 c5 38 15
89 22 114 12 38 19 46 52 58 25 8 61 11 102 7 80 -8 83 9 3 26 -55 12 -62 12
-95 -7 -19 -12 -35 -17 -35 -11 0 13 79 169 85 169 3 0 -2 -16 -10 -36 -27
-64 -15 -51 26 29 36 70 41 76 59 67 14 -7 26 -8 38 -1 14 9 13 10 -10 11 -15
0 -29 4 -32 8 -2 4 8 36 23 70 21 47 30 59 39 50 6 -6 14 -9 18 -6 3 4 -8 13
-24 22 -30 15 -30 15 -46 -22 l-16 -37 4 55 c2 30 5 60 6 65 1 6 1 21 0 35 -4
35 -18 -62 -20 -135 -1 -33 -4 -52 -8 -43 -7 18 2 204 12 246 3 12 14 36 26
52 38 54 14 32 -31 -27z"/>
<path d="M1120 1275 c7 -9 15 -13 17 -11 7 7 -7 26 -19 26 -6 0 -6 -6 2 -15z"/>
<path d="M1084 1038 c-93 -97 -97 -112 -6 -23 45 44 82 81 82 82 0 13 -25 -7
-76 -59z"/>
<path d="M3486 782 c-73 -154 -225 -547 -239 -619 -8 -38 3 -48 62 -57 24 -4
55 -13 70 -20 28 -14 130 -32 119 -21 -3 4 -40 15 -80 26 -41 10 -92 26 -113
35 l-39 16 32 14 c18 7 64 14 103 15 64 2 71 4 85 28 14 24 15 25 10 3 -3 -14
1 -25 10 -29 11 -4 12 -9 0 -31 -10 -19 -11 -35 -4 -60 5 -19 7 -45 4 -58 -6
-22 -3 -24 29 -24 l35 0 0 475 c0 261 -1 475 -2 475 -2 -1 -39 -76 -82 -168z"/>
</g>
</svg>
